<?xml version="1.0" encoding="utf-8"?>
<!-- Generator: Adobe Illustrator 15.1.0, SVG Export Plug-In . SVG Version: 6.00 Build 0)  -->
<!DOCTYPE svg PUBLIC "-//W3C//DTD SVG 1.1//EN" "http://www.w3.org/Graphics/SVG/1.1/DTD/svg11.dtd">
<svg version="1.1" id="Capa_1" xmlns="http://www.w3.org/2000/svg" xmlns:xlink="http://www.w3.org/1999/xlink" x="0px" y="0px"
	 width="595.271px" height="595.281px" viewBox="123.309 0 595.271 595.281" enable-background="new 123.309 0 595.271 595.281"
	 xml:space="preserve">
<g>
	<path d="M631.329,87.219c-116.293-116.293-304.712-116.293-420.881,0C98.61,199.058,94.404,377.952,197.953,494.863l3.093,2.475
		c-11.258,24.248-30.558,54.188-61.239,69.28c-10.145,4.949-7.794,20.042,3.341,21.774c33.526,5.195,81.652-0.619,126.561-34.517
		l0.619,0.494c114.065,67.055,263.267,51.714,361.249-46.27C747.622,391.931,747.622,203.388,631.329,87.219z M518.995,424.964
		c-6.557,6.681-13.485,12.866-19.671,19.795c-9.031,10.145-20.413,13.361-33.279,12.618c-18.805-0.989-36.249-7.299-52.95-15.464
		c-37.238-18.062-69.033-43.177-95.632-74.849c-19.671-23.382-35.878-48.867-46.642-77.693c-5.195-13.979-8.907-28.207-7.794-43.301
		c0.742-9.278,4.207-17.196,11.011-23.753c7.423-7.052,14.352-14.351,21.65-21.526c9.526-9.402,21.403-9.279,30.929,0
		c5.938,5.814,11.63,11.629,17.444,17.443c5.69,5.691,11.382,11.259,16.949,16.949c9.897,10.021,9.897,21.65,0,31.672
		c-7.052,7.175-14.104,14.351-21.403,21.278c-1.855,1.856-2.103,3.341-1.113,5.691c4.701,11.382,11.629,21.526,19.3,30.929
		c15.465,19.053,33.032,36.002,54.063,49.115c4.454,2.846,9.402,4.825,14.104,7.423c2.351,1.361,4.083,0.866,5.938-1.113
		c7.052-7.299,14.351-14.475,21.526-21.65c9.526-9.402,21.403-9.402,30.806,0c11.629,11.506,23.135,23.012,34.64,34.641
		C528.769,403.313,528.769,415.19,518.995,424.964z M409.26,232.71l3.711-26.476c25.609,3.588,48.868,15.217,67.178,33.527
		c17.444,17.443,28.826,39.341,32.908,63.466l-26.352,4.577c-3.216-18.681-12-35.63-25.485-49.115
		C446.993,244.463,429.054,235.431,409.26,232.71z M556.11,303.227c-5.938-34.641-22.269-66.064-47.135-91.055
		c-26.229-26.228-59.508-42.806-96.251-48.002l3.712-26.475c42.434,5.938,81.033,25.114,111.344,55.548
		c28.825,28.826,47.754,65.322,54.682,105.406L556.11,303.227z"/>
</g>
</svg>
